<?xml version="1.0" encoding="UTF-8" standalone="no"?>
<!-- Created with Inkscape (http://www.inkscape.org/) -->

<svg
   width="9.2603912mm"
   height="3.9687424mm"
   viewBox="0 0 9.2603912 3.9687424"
   version="1.1"
   id="svg5"
   xmlns:inkscape="http://www.inkscape.org/namespaces/inkscape"
   xmlns:sodipodi="http://sodipodi.sourceforge.net/DTD/sodipodi-0.dtd"
   xmlns="http://www.w3.org/2000/svg"
   xmlns:svg="http://www.w3.org/2000/svg">
  <sodipodi:namedview
     id="namedview7"
     pagecolor="#ffffff"
     bordercolor="#000000"
     borderopacity="0.25"
     inkscape:showpageshadow="2"
     inkscape:pageopacity="0.0"
     inkscape:pagecheckerboard="0"
     inkscape:deskcolor="#d1d1d1"
     inkscape:document-units="mm"
     showgrid="false" />
  <defs
     id="defs2" />
  <g
     inkscape:label="Layer 1"
     inkscape:groupmode="layer"
     id="layer1"
     transform="translate(-50.252076,-86.663335)">
    <path
       id="path215"
       style="fill:#9e9e9e;fill-opacity:1;stroke:#535353;stroke-width:0.0630723;stroke-dasharray:none;stroke-opacity:1"
       d="m 50.943357,86.695899 c 0.331604,0 3.938754,0 3.938754,0 0,0 3.503328,0.02094 3.873149,0 0.369824,-0.02092 0.724079,0.28779 0.724079,0.612038 0,0.324247 0,1.339682 0,1.339682 0,0 -0.03044,0.997685 0,1.339681 0.03044,0.341998 -0.380708,0.61204 -0.724079,0.61204 -0.343369,0 -3.873149,0 -3.873149,0 0,0 -3.585688,-0.02366 -3.938754,0 -0.353068,0.02365 -0.658473,-0.305964 -0.658473,-0.61204 0,-0.306075 0,-1.339681 0,-1.339681 0,0 0.02512,-1.013364 0,-1.339682 -0.02512,-0.326318 0.326867,-0.612038 0.658473,-0.612038 z"
       sodipodi:nodetypes="zczzczzczzczz" />
    <circle
       style="opacity:1;fill:#575757;fill-opacity:1;stroke:#323232;stroke-width:0.0466505;stroke-dasharray:none;stroke-opacity:1"
       id="path946"
       cx="-54.891781"
       cy="-88.647644"
       transform="scale(-1)"
       r="1.0350081" />
    <circle
       style="fill:#575757;fill-opacity:1;stroke:#323232;stroke-width:0.0466505;stroke-dasharray:none;stroke-opacity:1"
       id="path946-5"
       cx="-57.491314"
       cy="-88.647705"
       transform="scale(-1)"
       r="1.0350081" />
    <circle
       style="fill:#575757;fill-opacity:1;stroke:#323232;stroke-width:0.0466505;stroke-dasharray:none;stroke-opacity:1"
       id="path946-4"
       cx="-52.247005"
       cy="-88.647766"
       transform="scale(-1)"
       r="1.0350081" />
  </g>
</svg>
